<svg xmlns="http://www.w3.org/2000/svg" viewBox="0 0 220.18 74.48"><defs><style>.cls-1{fill:#fff;}</style></defs><title>ku_logo_white</title><g id="Layer_2" data-name="Layer 2"><g id="Layer_1-2" data-name="Layer 1"><path class="cls-1" d="M90.34,50.54a2.46,2.46,0,1,1,0,4.89H88.73v3.29h-2V50.54Zm-1.61,3.39h.95c.94,0,1.27-.34,1.27-.95s-.4-.95-1.5-.95h-.72Z"/><path class="cls-1" d="M95.67,54.78h0c.52-1.15,1.09-1.69,1.76-1.69a1.89,1.89,0,0,1,1.15.5l-.48,1.54a2,2,0,0,0-1-.41c-.64,0-1,.6-1.43,1.62v2.39H93.93V53.2h1.74Z"/><path class="cls-1" d="M101.85,58.83A2.88,2.88,0,1,1,105,56,2.87,2.87,0,0,1,101.85,58.83Zm0-4.71c-.76,0-1.27.59-1.27,1.83,0,1.43.61,1.85,1.27,1.85.82,0,1.25-.67,1.25-1.88S102.73,54.12,101.85,54.12Z"/><path class="cls-1" d="M108.62,53.2v1.19h-.79v4.34h-1.74V54.38h-.79V53.2h.79v-.28a2.27,2.27,0,0,1,2.42-2.48,8.67,8.67,0,0,1,1.06.11v1.4a5.48,5.48,0,0,0-.78-.07.86.86,0,0,0-1,1v.35Z"/><path class="cls-1" d="M114.58,58.1a4,4,0,0,1-2.47.73c-1.94,0-3.2-1.13-3.2-2.85a2.89,2.89,0,1,1,5.77.26h-4a1.62,1.62,0,0,0,1.82,1.56,3.24,3.24,0,0,0,2.05-.79Zm-1.44-2.77a1.19,1.19,0,0,0-1.2-1.21,1.18,1.18,0,0,0-1.2,1.21Z"/><path class="cls-1" d="M119.43,54.73a3.89,3.89,0,0,0-1.85-.61c-.23,0-.62,0-.62.43,0,.61,2.75.64,2.75,2.48,0,1.15-.82,1.8-2.25,1.8a5,5,0,0,1-2-.41V57.2a4.48,4.48,0,0,0,1.79.47c.52,0,.84-.16.84-.41,0-.8-2.75-.66-2.75-2.47,0-1,.92-1.7,2.29-1.7a3.71,3.71,0,0,1,1.79.41Z"/><path class="cls-1" d="M124.39,54.73a3.89,3.89,0,0,0-1.85-.61c-.23,0-.62,0-.62.43,0,.61,2.75.64,2.75,2.48,0,1.15-.82,1.8-2.25,1.8a5,5,0,0,1-2-.41V57.2a4.48,4.48,0,0,0,1.79.47c.52,0,.84-.16.84-.41,0-.8-2.75-.66-2.75-2.47,0-1,.92-1.7,2.29-1.7a3.71,3.71,0,0,1,1.79.41Z"/><path class="cls-1" d="M127.4,51.4a1,1,0,1,1-1-1A1,1,0,0,1,127.4,51.4Zm-.08,7.33h-1.74V53.2h1.74Z"/><path class="cls-1" d="M131.36,58.83A2.88,2.88,0,1,1,134.47,56,2.87,2.87,0,0,1,131.36,58.83Zm0-4.71c-.76,0-1.27.59-1.27,1.83,0,1.43.61,1.85,1.27,1.85.82,0,1.25-.67,1.25-1.88S132.24,54.12,131.36,54.12Z"/><path class="cls-1" d="M137.14,54a2.23,2.23,0,0,1,1.8-.9,1.94,1.94,0,0,1,2,2.12v3.51h-1.74V55.35c0-.78-.37-1.1-.86-1.1s-.76.23-1.21.91v3.56H135.4V53.2h1.74Z"/><path class="cls-1" d="M147.83,58.33a3.63,3.63,0,0,1-1.63.5c-.58,0-.85-.18-1-.62a3.08,3.08,0,0,1-1.82.62,1.48,1.48,0,0,1-1.55-1.36c0-1.32,1-1.58,3.29-2.3,0-.52-.2-.92-1-.92a3,3,0,0,0-2,.92V53.76a4.49,4.49,0,0,1,2.4-.67c1.39,0,2.34.47,2.34,1.68v2.52c0,.28.11.38.29.38s.25,0,.66-.31ZM145.14,56c-1,.37-1.52.61-1.52,1.16a.58.58,0,0,0,.56.59,1.47,1.47,0,0,0,1-.42Z"/><path class="cls-1" d="M150.22,58.72h-1.74V50.54h1.74Z"/><path class="cls-1" d="M162.49,54.48a6.71,6.71,0,0,1-1.64,2.45l1.64,1.8H160l-.6-.65a4.64,4.64,0,0,1-2.57.76,2.34,2.34,0,0,1-2.59-2.16c0-.94.58-1.67,1.83-2.31a3,3,0,0,1-.74-1.81,2.26,2.26,0,0,1,2.51-2.11c1.39,0,2.36.8,2.36,1.94a2.56,2.56,0,0,1-1.52,2.1l1.12,1.28a5.51,5.51,0,0,0,.94-1.28Zm-5.48.94c-.58.37-.84.72-.84,1.1a1,1,0,0,0,1,1,2.42,2.42,0,0,0,1.26-.46Zm1.61-2.94a.7.7,0,0,0-.75-.68.67.67,0,0,0-.76.62,1.84,1.84,0,0,0,.7,1.09C158.39,53.16,158.62,52.87,158.62,52.48Z"/><path class="cls-1" d="M94.24,71a6.35,6.35,0,0,1-3.21.82c-3.18,0-4.76-2.06-4.76-4.17s1.79-4.22,4.92-4.22a5.76,5.76,0,0,1,3,.72V66a5.71,5.71,0,0,0-2.82-.84c-1.74,0-3,1-3,2.48a2.63,2.63,0,0,0,2.91,2.51,6.36,6.36,0,0,0,3-.9Z"/><path class="cls-1" d="M98.22,71.83A2.88,2.88,0,1,1,101.32,69,2.87,2.87,0,0,1,98.22,71.83Zm0-4.71c-.76,0-1.27.59-1.27,1.83,0,1.43.61,1.85,1.27,1.85.82,0,1.25-.67,1.25-1.88S99.09,67.12,98.22,67.12Z"/><path class="cls-1" d="M104,67a2.23,2.23,0,0,1,1.8-.9,1.94,1.94,0,0,1,2,2.12v3.51h-1.74V68.35c0-.78-.37-1.1-.86-1.1s-.76.23-1.21.91v3.56h-1.74V66.2H104Z"/><path class="cls-1" d="M112.93,67.38h-2v2.28a.8.8,0,0,0,.85.89,2.42,2.42,0,0,0,1.16-.32v1.26a3.93,3.93,0,0,1-1.61.35,1.91,1.91,0,0,1-2.15-2.08V67.38h-.79V67l2.32-2.59h.22V66.2h2Z"/><path class="cls-1" d="M115.55,64.4a1,1,0,1,1-1-1A1,1,0,0,1,115.55,64.4Zm-.08,7.33h-1.74V66.2h1.74Z"/><path class="cls-1" d="M118.43,67a2.23,2.23,0,0,1,1.8-.9,1.94,1.94,0,0,1,2,2.12v3.51H120.5V68.35c0-.78-.37-1.1-.86-1.1s-.76.23-1.21.91v3.56h-1.74V66.2h1.74Z"/><path class="cls-1" d="M127.23,70.93a2.22,2.22,0,0,1-1.79.9,1.93,1.93,0,0,1-2-2.1V66.2h1.74v3.42c0,.78.42,1.06.88,1.06a1.32,1.32,0,0,0,1.19-.95V66.2H129v5.53h-1.74Z"/><path class="cls-1" d="M132,64.4a1,1,0,1,1-1-1A1,1,0,0,1,132,64.4ZM132,71.72h-1.74V66.2H132Z"/><path class="cls-1" d="M134.92,67a2.23,2.23,0,0,1,1.8-.9,1.94,1.94,0,0,1,2,2.12v3.51H137V68.35c0-.78-.37-1.1-.86-1.1s-.76.23-1.21.91v3.56h-1.74V66.2h1.74Z"/><path class="cls-1" d="M145.44,67.36h-.79a1.75,1.75,0,0,1,.28.92,1.7,1.7,0,0,1-.5,1.21c-1,1-2.59.41-2.59,1.05s2.11.08,3,1a1.51,1.51,0,0,1,.44,1.07c0,1.28-1.14,1.86-2.93,1.86-2.33,0-3-.88-3-1.61,0-.47.25-1.07,1.47-1.38v0c-.37-.11-.67-.32-.67-.72,0-.59.68-.74,1-.82v0a1.76,1.76,0,0,1-1.55-1.7c0-.68.48-2,2.47-2h3.29Zm-3.09,4.79c-.82,0-1.32.25-1.32.66s.5.65,1.43.65c.77,0,1.25-.32,1.25-.7S143.21,72.14,142.35,72.14Zm0-2.91a1,1,0,0,0,1-1.06,1,1,0,0,0-1-.95,1,1,0,0,0-1,1A1,1,0,0,0,142.31,69.23Z"/><path class="cls-1" d="M155.36,71.72h-6V63.54h5.95V65h-3.91v1.72h3.73v1.5h-3.73v2h4Z"/><path class="cls-1" d="M162.09,71.72h-1.74v-.44a2.27,2.27,0,0,1-1.54.55,2.88,2.88,0,0,1,.1-5.75,3.22,3.22,0,0,1,1.44.35V63.54h1.74Zm-1.74-4.15a1.87,1.87,0,0,0-1-.32c-.88,0-1.39.64-1.39,1.74s.52,1.68,1.33,1.68a1.46,1.46,0,0,0,1-.46Z"/><path class="cls-1" d="M167.1,70.93a2.22,2.22,0,0,1-1.79.9,1.93,1.93,0,0,1-2-2.1V66.2H165v3.42c0,.78.42,1.06.88,1.06a1.32,1.32,0,0,0,1.19-.95V66.2h1.75v5.53H167.1Z"/><path class="cls-1" d="M174.86,71.46a5.39,5.39,0,0,1-1.87.37c-1.94,0-3.2-1.13-3.2-2.85a2.9,2.9,0,0,1,3.13-2.89,5.73,5.73,0,0,1,1.86.36v1.3a3.19,3.19,0,0,0-1.42-.37,1.62,1.62,0,1,0-.06,3.23,4.27,4.27,0,0,0,1.56-.38Z"/><path class="cls-1" d="M181.51,71.33a3.63,3.63,0,0,1-1.63.5c-.58,0-.85-.18-1-.62a3.09,3.09,0,0,1-1.82.62,1.48,1.48,0,0,1-1.55-1.36c0-1.32,1-1.58,3.29-2.3,0-.52-.2-.92-1-.92a3,3,0,0,0-2,.92V66.76a4.49,4.49,0,0,1,2.4-.67c1.39,0,2.34.47,2.34,1.68v2.52c0,.28.11.38.29.38s.25,0,.66-.31ZM178.83,69c-1,.37-1.52.61-1.52,1.16a.58.58,0,0,0,.56.59,1.47,1.47,0,0,0,1-.42Z"/><path class="cls-1" d="M185.94,67.38h-2v2.28a.8.8,0,0,0,.85.89,2.42,2.42,0,0,0,1.16-.32v1.26a3.93,3.93,0,0,1-1.61.35,1.91,1.91,0,0,1-2.15-2.08V67.38h-.79V67l2.32-2.59h.22V66.2h2Z"/><path class="cls-1" d="M188.56,64.4a1,1,0,1,1-1-1A1,1,0,0,1,188.56,64.4Zm-.08,7.33h-1.74V66.2h1.74Z"/><path class="cls-1" d="M192.52,71.83A2.88,2.88,0,1,1,195.62,69,2.87,2.87,0,0,1,192.52,71.83Zm0-4.71c-.76,0-1.27.59-1.27,1.83,0,1.43.61,1.85,1.27,1.85.82,0,1.25-.67,1.25-1.88S193.39,67.12,192.52,67.12Z"/><path class="cls-1" d="M198.29,67a2.23,2.23,0,0,1,1.8-.9,1.94,1.94,0,0,1,2,2.12v3.51h-1.74V68.35c0-.78-.37-1.1-.86-1.1s-.76.23-1.21.91v3.56h-1.74V66.2h1.74Z"/><path class="cls-1" d="M89.45.88l-1.79,0c-.7,0-1,.08-1.17.35a1.47,1.47,0,0,0-.2.42c0,.1-.06.15-.13.15S86,1.78,86,1.65,86.27.36,86.3.26s.07-.23.14-.23A2.92,2.92,0,0,0,87,.18c.35,0,.81.06,1.2.06h4.76A5.28,5.28,0,0,0,94.08.12c.08,0,.1.07.1.25s0,1.08,0,1.4c0,.12,0,.19-.11.19s-.12-.06-.13-.24V1.59c0-.31-.35-.65-1.42-.68L91,.88V5.81c0,1.11,0,2.06.06,2.57,0,.34.11.6.47.65a4.65,4.65,0,0,0,.61,0c.13,0,.19,0,.19.1s-.1.12-.23.12c-.79,0-1.55,0-1.89,0s-1,0-1.52,0c-.16,0-.24,0-.24-.12s0-.1.19-.1A1.84,1.84,0,0,0,89,9c.24,0,.31-.31.35-.66.06-.5.06-1.46.06-2.56Z"/><path class="cls-1" d="M102.4,4a.07.07,0,0,0,.07-.08V3.69c0-1.83,0-2.17,0-2.55s-.12-.6-.51-.69a2.59,2.59,0,0,0-.47,0c-.13,0-.2,0-.2-.11s.08-.11.25-.11c.65,0,1.4,0,1.72,0s1,0,1.52,0c.17,0,.25,0,.25.11s-.07.11-.22.11l-.35,0c-.32.06-.42.27-.44.69s0,.72,0,2.55V5.81c0,1.11,0,2.06.06,2.57,0,.34.11.6.47.65a4.61,4.61,0,0,0,.61,0c.13,0,.19,0,.19.1s-.09.12-.24.12c-.78,0-1.54,0-1.88,0s-1,0-1.49,0c-.17,0-.25,0-.25-.12s0-.1.19-.1a1.79,1.79,0,0,0,.43,0c.24,0,.3-.31.34-.66.06-.5.06-1.46.06-2.56V4.75a.07.07,0,0,0-.07-.07H97.84s-.07,0-.07.07V5.81c0,1.11,0,2.06.06,2.57,0,.34.11.6.47.65a4.58,4.58,0,0,0,.61,0c.13,0,.19,0,.19.1s-.1.12-.24.12c-.78,0-1.53,0-1.86,0s-1,0-1.51,0c-.16,0-.24,0-.24-.12s0-.1.19-.1a1.84,1.84,0,0,0,.43,0c.24,0,.3-.31.35-.66.06-.5.06-1.46.06-2.56V3.69c0-1.83,0-2.17,0-2.55s-.12-.6-.52-.69a2.64,2.64,0,0,0-.47,0c-.13,0-.2,0-.2-.11s.08-.11.25-.11c.65,0,1.41,0,1.73,0s1,0,1.51,0c.17,0,.25,0,.25.11s-.07.11-.21.11l-.35,0c-.32.06-.42.27-.44.69s0,.72,0,2.55v.25c0,.06,0,.08.07.08Z"/><path class="cls-1" d="M107.8,3.69c0-1.83,0-2.17,0-2.55s-.12-.6-.52-.69a2.64,2.64,0,0,0-.47,0c-.13,0-.2,0-.2-.11s.08-.11.26-.11c.64,0,1.4,0,1.73,0s2.79,0,3,0a4.67,4.67,0,0,0,.52-.07,1.26,1.26,0,0,1,.19,0c.06,0,.07,0,.07.11a7.64,7.64,0,0,0-.1.78c0,.12,0,.65-.06.79s0,.13-.12.13-.11-.06-.11-.17a1.37,1.37,0,0,0-.07-.43c-.09-.22-.21-.36-.81-.43-.21,0-1.48,0-1.72,0-.06,0-.09,0-.09.12V4c0,.08,0,.13.09.13.27,0,1.66,0,1.93,0s.47-.06.58-.18.13-.16.19-.16.09,0,.09.09a8.74,8.74,0,0,0-.1.88c0,.24,0,.72,0,.81s0,.23-.11.23-.11,0-.11-.11a3.31,3.31,0,0,0-.05-.43c-.06-.24-.22-.42-.67-.47-.23,0-1.43,0-1.72,0-.06,0-.07,0-.07.12v1c0,.41,0,1.51,0,1.86,0,.83.22,1,1.46,1a3,3,0,0,0,1.13-.15c.31-.14.46-.4.54-.89,0-.13,0-.18.13-.18s.09.1.09.22A9.41,9.41,0,0,1,112.52,9c-.09.31-.19.31-.65.31-1.82,0-2.63-.07-3.35-.07-.27,0-1,0-1.52,0-.16,0-.24,0-.24-.12s0-.1.2-.1a1.84,1.84,0,0,0,.43,0c.24,0,.3-.31.35-.66.06-.5.06-1.46.06-2.56Z"/><path class="cls-1" d="M118.27,3.69c0-1.83,0-2.17,0-2.55s-.12-.6-.52-.69a2.63,2.63,0,0,0-.47,0c-.13,0-.21,0-.21-.11s.08-.11.27-.11c.64,0,1.39,0,1.76,0s1,0,1.48,0c.18,0,.27,0,.27.11s-.07.11-.2.11a2,2,0,0,0-.35,0c-.32.06-.42.27-.45.69s0,.72,0,2.55V5.38c0,1.74.35,2.48.94,3a2.23,2.23,0,0,0,1.5.49,2.37,2.37,0,0,0,1.66-.65c.66-.66.7-1.75.7-3V3.69c0-1.83,0-2.17,0-2.55s-.12-.6-.52-.69a2.43,2.43,0,0,0-.43,0c-.13,0-.21,0-.21-.11s.09-.11.25-.11c.61,0,1.37,0,1.38,0s.9,0,1.37,0c.17,0,.25,0,.25.11s-.07.11-.22.11a2,2,0,0,0-.35,0c-.32.06-.42.27-.45.69s0,.72,0,2.55V5c0,1.33-.13,2.76-1.14,3.62a3.59,3.59,0,0,1-2.5.87,3.87,3.87,0,0,1-2.67-.83,4,4,0,0,1-1.07-3.19Z"/><path class="cls-1" d="M129.6,7.67c0,.94.18,1.25.42,1.34a1.85,1.85,0,0,0,.63.09c.13,0,.2,0,.2.1s-.11.12-.28.12c-.78,0-1.26,0-1.49,0s-.67,0-1.3,0c-.16,0-.27,0-.27-.12s.07-.1.19-.1a2.12,2.12,0,0,0,.54-.06c.31-.1.36-.45.37-1.49l.11-7.12c0-.24,0-.41.15-.41s.24.16.45.37,2,2.12,3.73,3.87c.82.82,2.45,2.55,2.65,2.74h.06l-.12-5.4c0-.74-.12-1-.41-1.08a2,2,0,0,0-.64-.07c-.15,0-.19,0-.19-.11s.13-.11.31-.11c.63,0,1.21,0,1.46,0s.59,0,1.18,0c.16,0,.28,0,.28.11s-.07.11-.22.11a1.33,1.33,0,0,0-.36,0c-.34.1-.43.35-.45,1l-.13,7.59c0,.26,0,.37-.15.37s-.28-.13-.41-.26c-.76-.72-2.3-2.3-3.55-3.54s-2.64-2.8-2.86-3h0Z"/><path class="cls-1" d="M140.2,3.69c0-1.83,0-2.17,0-2.55s-.15-.61-.41-.67a1.77,1.77,0,0,0-.43,0c-.12,0-.19,0-.19-.12s.1-.1.29-.1c.46,0,1.21,0,1.56,0s1,0,1.47,0c.16,0,.25,0,.25.1s-.07.12-.2.12a2.21,2.21,0,0,0-.36,0c-.32.06-.42.27-.44.69s0,.72,0,2.55V5.81c0,1.17,0,2.12,0,2.63,0,.33.12.54.48.59a4.61,4.61,0,0,0,.61,0c.13,0,.19,0,.19.1s-.1.12-.22.12c-.79,0-1.55,0-1.88,0s-1,0-1.52,0c-.16,0-.24,0-.24-.12s0-.1.19-.1a1.83,1.83,0,0,0,.43,0c.24,0,.31-.25.35-.6.06-.51.06-1.46.06-2.62Z"/><path class="cls-1" d="M144.41,1.38c-.28-.66-.48-.79-.91-.92a1.89,1.89,0,0,0-.47,0c-.11,0-.14,0-.14-.11s.13-.11.31-.11c.64,0,1.32,0,1.74,0s.88,0,1.48,0c.14,0,.28,0,.28.11s-.07.11-.18.11a.88.88,0,0,0-.47.08.29.29,0,0,0-.12.25,3.73,3.73,0,0,0,.28.93l2.07,5.46h0c.52-1.32,2.08-5.2,2.37-6a1.47,1.47,0,0,0,.11-.44.23.23,0,0,0-.16-.23,1.59,1.59,0,0,0-.48-.06c-.11,0-.2,0-.2-.1s.11-.12.34-.12c.6,0,1.11,0,1.26,0s.77,0,1.13,0c.16,0,.25,0,.25.11s-.07.11-.19.11a1,1,0,0,0-.59.15c-.16.11-.34.31-.66,1.08-.47,1.13-.8,1.78-1.45,3.26l-1.6,3.67c-.31.7-.38.89-.55.89s-.23-.17-.46-.73Z"/><path class="cls-1" d="M154.11,3.69c0-1.83,0-2.17,0-2.55s-.12-.6-.52-.69a2.65,2.65,0,0,0-.47,0c-.13,0-.2,0-.2-.11s.08-.11.26-.11c.64,0,1.39,0,1.73,0s2.78,0,3,0a4.75,4.75,0,0,0,.52-.07,1.27,1.27,0,0,1,.19,0c.06,0,.07,0,.07.11s-.06.23-.1.78c0,.12,0,.65-.06.79s0,.13-.12.13-.11-.06-.11-.17a1.33,1.33,0,0,0-.07-.43c-.09-.22-.2-.36-.81-.43-.21,0-1.47,0-1.71,0-.06,0-.08,0-.08.12V4c0,.08,0,.13.08.13.27,0,1.65,0,1.93,0s.47-.06.58-.18.13-.16.19-.16.09,0,.09.09a8.61,8.61,0,0,0-.1.88c0,.24,0,.72,0,.81s0,.23-.11.23a.1.1,0,0,1-.11-.11,3.23,3.23,0,0,0,0-.43c-.06-.24-.23-.42-.67-.47-.23,0-1.42,0-1.71,0-.06,0-.07,0-.07.12v1c0,.41,0,1.51,0,1.86,0,.83.21,1,1.44,1a3,3,0,0,0,1.13-.15c.31-.14.46-.4.54-.89,0-.13,0-.18.13-.18s.09.1.09.22A9.12,9.12,0,0,1,158.81,9c-.08.31-.19.31-.65.31-1.82,0-2.62-.07-3.33-.07-.28,0-1,0-1.52,0-.16,0-.24,0-.24-.12s0-.1.2-.1a1.78,1.78,0,0,0,.43,0c.24,0,.3-.31.35-.66.06-.5.06-1.46.06-2.56Z"/><path class="cls-1" d="M161.59,3.69c0-1.83,0-2.17,0-2.55s-.12-.6-.52-.69a2.67,2.67,0,0,0-.47,0c-.13,0-.2,0-.2-.11s.08-.11.26-.11c.64,0,1.4,0,1.65,0l1.7,0a3.84,3.84,0,0,1,2.21.52A2.08,2.08,0,0,1,167,2.37a3.38,3.38,0,0,1-1.59,2.7c1.07,1.35,1.9,2.42,2.61,3.16a2.4,2.4,0,0,0,1.35.82,1.86,1.86,0,0,0,.34,0c.09,0,.14,0,.14.1s-.08.12-.23.12H168.5a2.47,2.47,0,0,1-1.29-.23,5.87,5.87,0,0,1-1.65-1.77c-.48-.66-1-1.48-1.19-1.66a.25.25,0,0,0-.21-.09l-1,0c-.06,0-.1,0-.1.1V5.8c0,1.12,0,2.07.06,2.58,0,.35.11.61.47.66a5,5,0,0,0,.59,0c.1,0,.14,0,.14.1s-.08.12-.24.12c-.7,0-1.59,0-1.77,0s-1,0-1.47,0c-.16,0-.24,0-.24-.12s0-.1.19-.1a1.84,1.84,0,0,0,.43,0c.24,0,.3-.31.35-.66.06-.5.06-1.46.06-2.56Zm1.42,1c0,.13,0,.18.11.22A3.17,3.17,0,0,0,164,5a1.19,1.19,0,0,0,.85-.2A2.12,2.12,0,0,0,165.6,3a1.92,1.92,0,0,0-1.84-2.2,2.62,2.62,0,0,0-.64,0c-.08,0-.11.07-.11.17Z"/><path class="cls-1" d="M169.9,9.16c-.19-.08-.23-.14-.23-.41,0-.66,0-1.38.06-1.58s0-.31.14-.31.12.11.12.2a2.6,2.6,0,0,0,.11.61,1.66,1.66,0,0,0,1.72,1.22,1.46,1.46,0,0,0,1.61-1.37c0-.59-.18-1.16-1.18-1.93l-.55-.43c-1.32-1-1.78-1.88-1.78-2.85C169.92,1,171,0,172.7,0a5.83,5.83,0,0,1,1.6.2c.11,0,.17.06.17.15s0,.5,0,1.44c0,.26,0,.36-.13.36s-.12-.07-.12-.22a1.46,1.46,0,0,0-.31-.8,1.53,1.53,0,0,0-1.31-.59,1.27,1.27,0,0,0-1.43,1.24c0,.55.28,1,1.28,1.73l.34.25c1.44,1.12,2,1.93,2,3.07A2.43,2.43,0,0,1,173.57,9a3.5,3.5,0,0,1-1.92.49A4.21,4.21,0,0,1,169.9,9.16Z"/><path class="cls-1" d="M177.44,3.69c0-1.83,0-2.17,0-2.55s-.15-.61-.41-.67a1.74,1.74,0,0,0-.43,0c-.12,0-.19,0-.19-.12s.1-.1.29-.1c.46,0,1.22,0,1.56,0s1,0,1.47,0c.16,0,.25,0,.25.1s-.07.12-.19.12a2.21,2.21,0,0,0-.36,0c-.32.06-.42.27-.45.69s0,.72,0,2.55V5.81c0,1.17,0,2.12,0,2.63,0,.33.12.54.48.59a4.64,4.64,0,0,0,.61,0c.13,0,.19,0,.19.1s-.1.12-.23.12c-.79,0-1.55,0-1.88,0s-1,0-1.52,0c-.16,0-.24,0-.24-.12s0-.1.19-.1A1.82,1.82,0,0,0,177,9c.24,0,.31-.25.35-.6.06-.51.06-1.46.06-2.62Z"/><path class="cls-1" d="M184.36.88l-1.79,0c-.69,0-1,.08-1.17.35a1.38,1.38,0,0,0-.2.42c0,.1-.06.15-.13.15s-.11-.06-.11-.19.23-1.29.25-1.38.07-.23.14-.23a2.9,2.9,0,0,0,.52.14c.35,0,.8.06,1.2.06h4.76A5.31,5.31,0,0,0,189,.12c.08,0,.09.07.09.25s0,1.08,0,1.4c0,.12,0,.19-.11.19s-.12-.06-.13-.24V1.59c0-.31-.35-.65-1.42-.68l-1.52,0V5.81c0,1.11,0,2.06.06,2.57,0,.34.11.6.47.65a4.66,4.66,0,0,0,.61,0c.13,0,.2,0,.2.1s-.1.12-.23.12c-.79,0-1.55,0-1.89,0s-1,0-1.52,0c-.16,0-.24,0-.24-.12s0-.1.19-.1A1.84,1.84,0,0,0,184,9c.24,0,.31-.31.35-.66.06-.5.06-1.46.06-2.56Z"/><path class="cls-1" d="M192.53,6.19a2.54,2.54,0,0,0-.28-1.26c-.09-.19-1.7-2.84-2.12-3.47a2.91,2.91,0,0,0-.83-.88,1.21,1.21,0,0,0-.51-.16c-.1,0-.18,0-.18-.11s.08-.11.23-.11l1.52,0c.25,0,.74,0,1.29,0,.12,0,.18,0,.18.11s-.08.09-.27.13a.22.22,0,0,0-.17.22,1.11,1.11,0,0,0,.14.41c.17.36,1.85,3.26,2,3.6.12-.29,1.63-2.94,1.8-3.31a1.59,1.59,0,0,0,.17-.63.29.29,0,0,0-.25-.3c-.11,0-.21,0-.21-.12s.06-.11.2-.11c.4,0,.78,0,1.13,0l1.29,0c.13,0,.21,0,.21.1s-.09.12-.23.12a1.27,1.27,0,0,0-.53.15,1.76,1.76,0,0,0-.65.59A38.13,38.13,0,0,0,194.23,5a2.89,2.89,0,0,0-.18,1.2v1c0,.19,0,.7,0,1.2,0,.35.13.61.49.66a4.68,4.68,0,0,0,.6,0c.13,0,.19,0,.19.1s-.1.12-.25.12c-.76,0-1.52,0-1.84,0s-1.06,0-1.5,0c-.17,0-.27,0-.27-.12s.06-.1.19-.1a1.79,1.79,0,0,0,.42,0c.24,0,.35-.31.37-.66,0-.5,0-1,0-1.2Z"/><path class="cls-1" d="M201.3,4.75a4.63,4.63,0,0,1,5-4.72c3,0,4.86,1.74,4.86,4.5a4.76,4.76,0,0,1-5,4.93A4.58,4.58,0,0,1,201.3,4.75Zm8.15.23c0-2.7-1.55-4.37-3.53-4.37-1.38,0-3,.77-3,3.76,0,2.5,1.38,4.49,3.69,4.49C207.5,8.87,209.45,8.46,209.45,5Z"/><path class="cls-1" d="M215.17,5.81c0,1.15,0,2.06.06,2.56,0,.35.11.61.47.66a4.65,4.65,0,0,0,.6,0c.16,0,.2,0,.2.1s-.08.12-.27.12c-.76,0-1.52,0-1.83,0s-1.07,0-1.53,0c-.17,0-.25,0-.25-.12s0-.1.18-.1a1.84,1.84,0,0,0,.44,0c.24,0,.3-.31.35-.66.06-.5.06-1.41.06-2.56V3.69c0-1.83,0-2.17,0-2.55s-.12-.6-.52-.69a2.67,2.67,0,0,0-.47,0c-.12,0-.2,0-.2-.1s.1-.12.28-.12c.63,0,1.38,0,1.73,0s2.9,0,3.18,0a2.3,2.3,0,0,0,.49,0,.73.73,0,0,1,.19-.07s.08,0,.08.11-.06.23-.1.54c0,.12,0,.83-.06,1s0,.17-.12.17-.11-.06-.12-.19a1.14,1.14,0,0,0-.07-.46.86.86,0,0,0-.79-.36l-1.85,0c-.07,0-.11,0-.11.17V4c0,.07,0,.11.08.11h2.08a.63.63,0,0,0,.52-.22c.06-.07.08-.12.16-.12s.07,0,.07.11-.06.37-.1.75,0,.79,0,.88,0,.23-.12.23-.1-.09-.1-.17a1.32,1.32,0,0,0-.07-.37.7.7,0,0,0-.62-.43c-.3,0-1.57,0-1.78,0s-.08,0-.08.11Z"/><path class="cls-1" d="M160.38,13c-1.62,0-2.89.1-3.24.1-.7,0-2.29-.1-4-.1-.5,0-.87,0-.87.3s.13.3.53.3a5.5,5.5,0,0,1,1.76.2c.79.33,1.09,1,1.13,3L156,31.66h-.17c-.57-.54-5-5.31-7.29-7.56-4.84-4.81-9.88-10.21-10.28-10.64-.57-.6-.87-1-1.24-1s-.43.46-.43,1.13l-.29,19.62a23.29,23.29,0,0,1-.12,2.57A2.07,2.07,0,0,1,134,37.26,3.27,3.27,0,0,1,131.35,36h0a12.83,12.83,0,0,1-1.21-2.31c-2.12-5-7.42-18.56-8.23-20.38-.33-.76-.53-1.06-.83-1.06s-.52.37-.92,1.33l-8.32,20.81a12.2,12.2,0,0,1-.8,1.76,1.63,1.63,0,0,1-1.29.84,2.84,2.84,0,0,1-1.46-.6c-.16-.11-.31-.24-.48-.38l0,0h0c-.69-.56-1.51-1.34-2.71-2.51s-7.7-8.32-8.89-9.88c1.13-1.19,6.1-6.16,7.11-7.15A10.54,10.54,0,0,1,106.87,14a6.48,6.48,0,0,1,1.91-.36c.33,0,.51-.07.51-.3s-.24-.3-.58-.3c-1,0-2.85.1-3.87.1s-2.7-.1-3.4-.1c-.37,0-.54.06-.54.3s.14.27.43.34.48.29.48.66c0,.57-.73,1.39-1.65,2.49s-5.77,6.07-6.91,7.29h-.16V22.61c0-5,0-6,.06-7s.33-1.72,1.24-1.88a5,5,0,0,1,.92-.1c.26,0,.46-.07.46-.3s-.23-.3-.69-.3c-1.12,0-3.21.1-4,.1s-2.88-.1-4.63-.1c-.51,0-.74.06-.74.3s.2.3.57.3a6.74,6.74,0,0,1,1.28.1c1.1.23,1.37.76,1.43,1.88s.07,2,.07,7v5.83c0,3,0,5.67-.16,7.07-.13,1-.3,1.69-1,1.82a5.53,5.53,0,0,1-1.18.13c-.4,0-.53.1-.53.27s.23.33.66.33c1.32,0,3.41-.1,4.16-.1s2.93.1,4.78.1c.36,0,.64-.1.64-.33s-.17-.27-.44-.27a14.33,14.33,0,0,1-1.61-.13c-.84-.13-1.14-.87-1.21-1.79-.1-1.43-.1-4.05-.1-7.1v-3h.16l.37.49c.71,1,7.2,8.62,8.65,9.91s2.31,2,4.1,2.15a18.22,18.22,0,0,0,1.82.07h7.46c.36,0,.56-.07.56-.33s-.1-.27-.49-.27h-.49c-1,0-1.34-.42-1.34-1a6.42,6.42,0,0,1,.5-2l1.79-4.74c.06-.2.13-.26.29-.26h7.4a.31.31,0,0,1,.33.23l2.65,7a.54.54,0,0,1-.29.76c-.33,0-.46.1-.46.3s.39.23,1,.26c2.65.07,5.08.07,6.28.07h8.33c.46,0,.75-.07.75-.33s-.19-.27-.55-.27a5.43,5.43,0,0,1-1.72-.23c-.67-.23-1.09-1.09-1.15-3.68l-.37-13.92h.1c.59.64,4.28,4.78,7.89,8.36,3.44,3.41,7.69,7.76,9.78,9.74.36.37.76.73,1.12.73s.43-.3.43-1l.38-20.91c0-1.86.31-2.55,1.23-2.81a3.59,3.59,0,0,1,1-.1c.41,0,.61-.1.61-.3S160.8,13,160.38,13ZM123.24,27.75h-6.1c-.14,0-.17-.1-.14-.24l3.05-8.15c0-.13.1-.29.2-.29s.13.16.16.29l3,8.19C123.44,27.64,123.41,27.75,123.24,27.75Zm80.36,9.71a7.61,7.61,0,0,1-1.39-.13c-.7-.16-1.65-.63-2.92-3.61-2.11-5-7.42-18.56-8.22-20.38-.32-.76-.53-1.06-.82-1.06s-.53.37-.93,1.33L181,34.41c-.66,1.66-1.28,2.78-2.81,3a10.05,10.05,0,0,1-1,.07c-.27,0-.4.07-.4.27s.19.33.63.33c1.72,0,3.54-.1,3.9-.1,1,0,2.45.1,3.52.1.36,0,.56-.07.56-.33s-.1-.27-.5-.27h-.5c-1,0-1.32-.42-1.32-1a6.34,6.34,0,0,1,.49-2l1.8-4.74c.07-.2.13-.26.3-.26H193a.32.32,0,0,1,.33.23l2.65,7a.54.54,0,0,1-.3.76c-.33,0-.46.1-.46.3s.4.23,1,.26c2.65.07,5.07.07,6.27.07S204,38,204,37.72,203.87,37.45,203.6,37.45Zm-11.2-9.71h-6.11c-.13,0-.17-.1-.13-.24l3.05-8.15c0-.13.1-.29.2-.29s.14.16.17.29l3,8.19C192.6,27.64,192.57,27.75,192.4,27.75Zm21.38-4.8-.93-.7c-2.75-2.08-3.52-3.24-3.52-4.77,0-2,1.5-3.42,4-3.42a4.18,4.18,0,0,1,3.6,1.63,4,4,0,0,1,.87,2.19c0,.4.1.6.33.6s.37-.26.37-1c0-2.59.13-3.55.13-4,0-.24-.16-.34-.46-.41a16.25,16.25,0,0,0-4.41-.56c-4.61,0-7.65,2.62-7.65,6.27,0,2.68,1.25,5,4.9,7.85l1.52,1.2c2.76,2.11,3.26,3.68,3.26,5.3s-1.46,3.78-4.45,3.78a4.57,4.57,0,0,1-4.74-3.35,7.31,7.31,0,0,1-.29-1.69c0-.27,0-.57-.33-.57s-.37.37-.39.86-.17,2.52-.17,4.34c0,.73.09.89.63,1.13a11.39,11.39,0,0,0,4.84.87,9.58,9.58,0,0,0,5.27-1.36,6.67,6.67,0,0,0,3.11-5.77C219.22,28.24,217.77,26,213.79,22.94Zm-42.16,0-.94-.7c-2.76-2.08-3.51-3.24-3.51-4.77,0-2,1.49-3.42,3.94-3.42a4.25,4.25,0,0,1,3.63,1.63,4.1,4.1,0,0,1,.85,2.19c0,.4.1.6.33.6s.37-.26.37-1c0-2.59.14-3.55.14-4,0-.24-.17-.34-.47-.41a16.15,16.15,0,0,0-4.4-.56c-4.6,0-7.65,2.62-7.65,6.27,0,2.68,1.24,5,4.9,7.85l1.52,1.2c2.75,2.11,3.25,3.68,3.25,5.3s-1.45,3.78-4.43,3.78a4.56,4.56,0,0,1-4.74-3.35,6.8,6.8,0,0,1-.3-1.69c0-.27,0-.57-.33-.57s-.37.37-.41.86-.17,2.52-.17,4.34c0,.73.1.89.64,1.13a11.39,11.39,0,0,0,4.84.87,9.6,9.6,0,0,0,5.27-1.36,6.7,6.7,0,0,0,3.12-5.77C177.06,28.24,175.59,26,171.63,22.94Z"/><path class="cls-1" d="M31.1,6.08C29.24,7.78,20.46,16.61,18.47,18.71l16.77,18L42,44.12c2.36,2.27,5.11,4.65,8,5.8A13.77,13.77,0,0,0,54,51c.41,0,.76.12.76.47s-.3.58-1.41.58H48.24c-1.75,0-2.81,0-4-.12-3.15-.29-4.73-1.58-7.25-3.8L14,22.8l-.64-.88H13v5.32c0,5.38,0,10,.18,12.51.12,1.64.64,2.92,2.1,3.16a25.09,25.09,0,0,0,2.87.23c.46,0,.76.17.76.47s-.47.59-1.11.59c-3.28,0-7-.18-8.43-.18s-5,.18-7.36.18c-.76,0-1.17-.18-1.17-.59s.23-.47.94-.47a9.65,9.65,0,0,0,2.1-.23c1.17-.24,1.46-1.52,1.7-3.22.29-2.45.29-7.07.29-12.45V17c0-8.89,0-10.53-.12-12.39S5.2,1.64,3.27,1.23A12.32,12.32,0,0,0,1,1.05c-.64,0-1-.11-1-.52S.41,0,1.28,0c3.1,0,6.78.18,8.19.18S14.56,0,16.55,0c.82,0,1.22.12,1.22.53s-.35.52-.82.52a8.93,8.93,0,0,0-1.64.18c-1.58.29-2,1.29-2.16,3.34C13,6.43,13,8.07,13,17v2.57h.3c2-2.16,10.52-10.88,12.22-12.87s2.93-3.39,2.93-4.38c0-.64-.24-1.06-.82-1.17S26.9.88,26.9.53s.29-.53.93-.53c1.23,0,4.44.18,6,.18H45.06c1.4,0,5.07-.17,7.18-.17.87,0,1.29.12,1.29.53s-.35.52-.94.52a8.75,8.75,0,0,0-1.69.18c-1.58.29-2,1.28-2.16,3.32-.12,1.87-.12,3.5-.12,12.36v8.17c0,8.46,1.7,12,4.55,14.35a10.79,10.79,0,0,0,7.29,2.39,11.42,11.42,0,0,0,8-3.15c3.21-3.21,3.38-8.46,3.38-14.46v-7.3c0-8.87,0-10.5-.11-12.36s-.58-2.91-2.51-3.32A11.3,11.3,0,0,0,67.17,1c-.64,0-1-.12-1-.52S66.59,0,67.4,0c3,0,6.65.17,6.71.17.7,0,4.37-.17,6.65-.17C81.58,0,82,.12,82,.53s-.35.52-1,.52a8.77,8.77,0,0,0-1.69.18c-1.58.29-2,1.28-2.16,3.32C77,6.41,77,8,77,16.91v6.24c0,6.47-.64,13.36-5.54,17.55a17.4,17.4,0,0,1-12.13,4.21c-3.09,0-8.69-.18-12.95-4-3-2.68-5.19-7-5.19-15.46V16.91c0-8.87,0-10.5-.12-12.36s-.69-3.32-2.51-3.32S34.12,3.31,31.1,6.08Z"/><path class="cls-1" d="M219.77,44.74H85.17a.41.41,0,0,1,0-.82H219.77a.41.41,0,0,1,0,.82Z"/></g></g></svg>